<?xml version="1.0" encoding="UTF-8"?>
<!DOCTYPE svg PUBLIC "-//W3C//DTD SVG 1.1//EN" "http://www.w3.org/Graphics/SVG/1.1/DTD/svg11.dtd">
<svg xmlns="http://www.w3.org/2000/svg" version="1.1" width="24px" height="24px" style="shape-rendering:geometricPrecision; text-rendering:geometricPrecision; image-rendering:optimizeQuality; fill-rule:evenodd; clip-rule:evenodd" xmlns:xlink="http://www.w3.org/1999/xlink">
<g><path style="opacity:0.89" fill="#22c6a9" d="M 8.5,0.5 C 14.4676,-0.541206 17.8009,1.79213 18.5,7.5C 19.5,7.5 20.5,7.5 21.5,7.5C 21.5,10.8333 21.5,14.1667 21.5,17.5C 10.9146,17.5153 10.9146,18.1819 21.5,19.5C 14.8665,20.4967 8.19979,20.83 1.5,20.5C 1.5,16.1667 1.5,11.8333 1.5,7.5C 2.5,7.5 3.5,7.5 4.5,7.5C 4.18675,4.16263 5.52009,1.8293 8.5,0.5 Z M 8.5,3.5 C 10.5273,3.33788 12.5273,3.50454 14.5,4C 15.3366,5.01127 15.67,6.17793 15.5,7.5C 12.8333,7.5 10.1667,7.5 7.5,7.5C 7.43255,6.04125 7.76589,4.70792 8.5,3.5 Z"/></g>
</svg>
