<?xml version="1.0" encoding="UTF-8"?>
<!DOCTYPE svg PUBLIC "-//W3C//DTD SVG 1.1//EN" "http://www.w3.org/Graphics/SVG/1.1/DTD/svg11.dtd">
<svg xmlns="http://www.w3.org/2000/svg" version="1.1" width="24px" height="24px" style="shape-rendering:geometricPrecision; text-rendering:geometricPrecision; image-rendering:optimizeQuality; fill-rule:evenodd; clip-rule:evenodd" xmlns:xlink="http://www.w3.org/1999/xlink">
<g><path style="opacity:0.959" fill="#22c7a8" d="M 9.5,-0.5 C 11.8333,-0.5 14.1667,-0.5 16.5,-0.5C 20.4333,2.6072 21.4333,6.6072 19.5,11.5C 21.2156,12.5487 22.5489,13.882 23.5,15.5C 23.5,17.5 23.5,19.5 23.5,21.5C 18.6953,22.0599 14.0286,22.7265 9.5,23.5C 8.5,23.5 7.5,23.5 6.5,23.5C 4.65048,21.4284 2.31715,20.0951 -0.5,19.5C -0.5,18.1667 -0.5,16.8333 -0.5,15.5C 2.80802,15.1694 5.47469,13.6694 7.5,11C 5.07656,6.73293 5.74323,2.89959 9.5,-0.5 Z M 10.5,14.5 C 13.1964,13.967 16.1964,13.8003 19.5,14C 21.7007,15.6845 22.3673,17.6845 21.5,20C 18.1667,20.6667 14.8333,20.6667 11.5,20C 12.9802,17.7655 12.6469,15.9321 10.5,14.5 Z"/></g>
</svg>
