<?xml version="1.0" encoding="UTF-8"?>
<!DOCTYPE svg PUBLIC "-//W3C//DTD SVG 1.1//EN" "http://www.w3.org/Graphics/SVG/1.1/DTD/svg11.dtd">
<svg xmlns="http://www.w3.org/2000/svg" version="1.1" width="24px" height="24px" style="shape-rendering:geometricPrecision; text-rendering:geometricPrecision; image-rendering:optimizeQuality; fill-rule:evenodd; clip-rule:evenodd" xmlns:xlink="http://www.w3.org/1999/xlink">
<g><path style="opacity:0.665" fill="#23c5aa" d="M 11.5,2.5 C 11.1667,3.16667 10.8333,3.83333 10.5,4.5C 8.52656,5.48672 6.52656,6.48672 4.5,7.5C 4.16667,7.16667 3.83333,6.83333 3.5,6.5C 5.64325,4.22348 8.30992,2.89015 11.5,2.5 Z"/></g>
<g><path style="opacity:0.429" fill="#22c7a9" d="M 11.5,2.5 C 13.403,2.79586 15.0697,3.46253 16.5,4.5C 15.5084,4.32842 14.8417,4.66175 14.5,5.5C 13.2921,4.76589 11.9587,4.43255 10.5,4.5C 10.8333,3.83333 11.1667,3.16667 11.5,2.5 Z"/></g>
<g><path style="opacity:0.619" fill="#22c5a9" d="M 14.5,5.5 C 14.8417,4.66175 15.5084,4.32842 16.5,4.5C 18.9728,4.60435 19.6394,5.60435 18.5,7.5C 17.1401,6.82006 15.8068,6.15339 14.5,5.5 Z"/></g>
<g><path style="opacity:0.718" fill="#24cba5" d="M 3.5,11.5 C 3.5,12.1667 3.16667,12.5 2.5,12.5C 1.73261,11.828 1.06594,10.9947 0.5,10C 2.15746,9.27484 3.15746,9.77484 3.5,11.5 Z"/></g>
<g><path style="opacity:0.659" fill="#20c4a8" d="M 20.5,13.5 C 19.6618,13.8417 19.3284,14.5084 19.5,15.5C 18.8333,15.5 18.1667,15.5 17.5,15.5C 18.1098,14.609 18.4431,13.609 18.5,12.5C 19.3218,10.2721 20.6552,9.60542 22.5,10.5C 21.8075,11.5178 21.1408,12.5178 20.5,13.5 Z"/></g>
<g><path style="opacity:0.548" fill="#22c7a8" d="M 3.5,11.5 C 5.00087,12.7515 6.66754,13.7515 8.5,14.5C 8.16667,15.1667 7.83333,15.8333 7.5,16.5C 7.16667,16.5 6.83333,16.5 6.5,16.5C 4.73632,15.2878 3.06966,15.6212 1.5,17.5C 1.16667,17.1667 0.833333,16.8333 0.5,16.5C 1.63023,15.3777 2.29689,14.0443 2.5,12.5C 3.16667,12.5 3.5,12.1667 3.5,11.5 Z"/></g>
<g><path style="opacity:0.661" fill="#21c9ad" d="M 18.5,12.5 C 18.4431,13.609 18.1098,14.609 17.5,15.5C 16.8333,15.5 16.5,15.8333 16.5,16.5C 16.6716,17.4916 16.3382,18.1583 15.5,18.5C 15.5,17.8333 15.1667,17.5 14.5,17.5C 14.6716,16.5084 14.3382,15.8417 13.5,15.5C 14.9649,14.2632 16.6316,13.2632 18.5,12.5 Z"/></g>
<g><path style="opacity:0.751" fill="#23c4aa" d="M 8.5,14.5 C 10.0418,15.3007 11.7085,15.634 13.5,15.5C 14.3382,15.8417 14.6716,16.5084 14.5,17.5C 13.8333,17.5 13.1667,17.5 12.5,17.5C 11.8333,17.5 11.1667,17.5 10.5,17.5C 9.5,17.5 8.5,17.5 7.5,17.5C 7.5,17.1667 7.5,16.8333 7.5,16.5C 7.83333,15.8333 8.16667,15.1667 8.5,14.5 Z"/></g>
<g><path style="opacity:0.855" fill="#21c7a8" d="M 20.5,13.5 C 21.1408,14.4822 21.8075,15.4822 22.5,16.5C 21.1405,17.6653 20.1405,17.332 19.5,15.5C 19.3284,14.5084 19.6618,13.8417 20.5,13.5 Z"/></g>
<g><path style="opacity:0.505" fill="#22c6a8" d="M 16.5,16.5 C 18.0878,17.6353 18.4212,18.9686 17.5,20.5C 16.4777,20.1445 15.811,19.4778 15.5,18.5C 16.3382,18.1583 16.6716,17.4916 16.5,16.5 Z"/></g>
<g><path style="opacity:0.396" fill="#22c5a9" d="M 6.5,16.5 C 6.83333,16.5 7.16667,16.5 7.5,16.5C 7.5,16.8333 7.5,17.1667 7.5,17.5C 7.39565,19.9728 6.39565,20.6394 4.5,19.5C 4.94242,18.2613 5.60908,17.2613 6.5,16.5 Z"/></g>
<g><path style="opacity:0.482" fill="#21c6a9" d="M 10.5,17.5 C 11.1667,17.5 11.8333,17.5 12.5,17.5C 11.8333,22.8333 11.1667,22.8333 10.5,17.5 Z"/></g>
</svg>
