<?xml version="1.0" encoding="UTF-8"?>
<!DOCTYPE svg PUBLIC "-//W3C//DTD SVG 1.1//EN" "http://www.w3.org/Graphics/SVG/1.1/DTD/svg11.dtd">
<svg xmlns="http://www.w3.org/2000/svg" version="1.1" width="24px" height="24px" style="shape-rendering:geometricPrecision; text-rendering:geometricPrecision; image-rendering:optimizeQuality; fill-rule:evenodd; clip-rule:evenodd" xmlns:xlink="http://www.w3.org/1999/xlink">
<g><path style="opacity:0.619" fill="#22c7a7" d="M 14.5,5.5 C 14.5,6.16667 14.1667,6.5 13.5,6.5C 11.901,6.23219 10.5676,6.56552 9.5,7.5C 8.83333,7.5 8.16667,7.5 7.5,7.5C 6.66175,7.15829 6.32842,6.49162 6.5,5.5C 9.22949,4.46956 11.8962,4.46956 14.5,5.5 Z"/></g>
<g><path style="opacity:0.542" fill="#21caaf" d="M 14.5,5.5 C 15.791,5.26269 16.791,5.59603 17.5,6.5C 16.375,7.34775 16.375,8.34775 17.5,9.5C 17.5,10.1667 17.5,10.8333 17.5,11.5C 16.8333,11.1667 16.1667,10.8333 15.5,10.5C 15.7148,8.82124 15.0481,7.82124 13.5,7.5C 13.5,7.16667 13.5,6.83333 13.5,6.5C 14.1667,6.5 14.5,6.16667 14.5,5.5 Z"/></g>
<g><path style="opacity:0.86" fill="#21c6a8" d="M 9.5,7.5 C 10.8333,7.5 12.1667,7.5 13.5,7.5C 15.0845,12.0793 13.5845,13.4126 9,11.5C 8.42094,10.0715 8.58761,8.7382 9.5,7.5 Z"/></g>
<g><path style="opacity:0.405" fill="#22c6a7" d="M 17.5,6.5 C 19.7721,7.44112 21.7721,8.77445 23.5,10.5C 23.5,11.1667 23.5,11.8333 23.5,12.5C 22.8333,12.8333 22.1667,13.1667 21.5,13.5C 21.5,12.8333 21.1667,12.5 20.5,12.5C 20.5,10.5 19.5,9.5 17.5,9.5C 16.375,8.34775 16.375,7.34775 17.5,6.5 Z"/></g>
<g><path style="opacity:0.535" fill="#24c6a9" d="M 1.5,9.5 C 2.16667,9.5 2.5,9.83333 2.5,10.5C 2.5,12.5 3.5,13.5 5.5,13.5C 5.5,13.8333 5.5,14.1667 5.5,14.5C 5.5,15.1667 5.5,15.8333 5.5,16.5C 3.22794,15.5589 1.22794,14.2255 -0.5,12.5C -0.5,11.8333 -0.5,11.1667 -0.5,10.5C 0.166667,10.1667 0.833333,9.83333 1.5,9.5 Z"/></g>
<g><path style="opacity:0.604" fill="#22c7a9" d="M 6.5,5.5 C 6.32842,6.49162 6.66175,7.15829 7.5,7.5C 7.05351,10.0101 7.72017,12.0101 9.5,13.5C 9.16667,14.1667 8.83333,14.8333 8.5,15.5C 8.16667,15.5 7.83333,15.5 7.5,15.5C 7.5,14.8333 7.16667,14.5 6.5,14.5C 6.5,13.8333 6.16667,13.5 5.5,13.5C 5.87946,10.4331 4.87946,9.43311 2.5,10.5C 2.5,9.83333 2.16667,9.5 1.5,9.5C 2.94478,7.93731 4.61145,6.60398 6.5,5.5 Z"/></g>
<g><path style="opacity:0.529" fill="#22c9a5" d="M 15.5,10.5 C 16.1667,10.8333 16.8333,11.1667 17.5,11.5C 17.5,12.1667 17.5,12.8333 17.5,13.5C 16.8333,13.5 16.5,13.8333 16.5,14.5C 15.8333,14.5 15.5,14.8333 15.5,15.5C 15.8333,16.1667 16.1667,16.8333 16.5,17.5C 15.8333,17.5 15.1667,17.5 14.5,17.5C 14.741,14.001 13.9076,13.6677 12,16.5C 10.9887,15.6634 9.82207,15.33 8.5,15.5C 8.83333,14.8333 9.16667,14.1667 9.5,13.5C 12.5046,14.6646 14.5046,13.6646 15.5,10.5 Z"/></g>
<g><path style="opacity:0.627" fill="#21c7aa" d="M 5.5,14.5 C 5.83333,14.5 6.16667,14.5 6.5,14.5C 7.16667,14.5 7.5,14.8333 7.5,15.5C 7.83333,15.5 8.16667,15.5 8.5,15.5C 9.82207,15.33 10.9887,15.6634 12,16.5C 13.9076,13.6677 14.741,14.001 14.5,17.5C 11.3133,18.6169 8.31328,18.2835 5.5,16.5C 5.5,15.8333 5.5,15.1667 5.5,14.5 Z"/></g>
<g><path style="opacity:0.663" fill="#23c8ad" d="M 20.5,12.5 C 21.1667,12.5 21.5,12.8333 21.5,13.5C 20.0552,15.0627 18.3885,16.396 16.5,17.5C 16.1667,16.8333 15.8333,16.1667 15.5,15.5C 16.1667,15.5 16.5,15.1667 16.5,14.5C 17.1667,14.5 17.5,14.1667 17.5,13.5C 18.609,13.4431 19.609,13.1098 20.5,12.5 Z"/></g>
</svg>
